<?xml version="1.0" encoding="UTF-8"?>
<svg fill="#273a3f" class="" width="512" height="512" enable-background="new 0 0 512 512" version="1.1" viewBox="0 0 24 24" xml:space="preserve" xmlns="http://www.w3.org/2000/svg"><g data-name="Layer 1"><path class="" d="m10.5 13h-9a.5.5 0 0 0 -.5.5v9a.5.5 0 0 0 .5.5h9a.5.5 0 0 0 .5-.5v-9a.5.5 0 0 0 -.5-.5z" data-original="#000000"/><path class="" d="m10.5 1h-9a.5.5 0 0 0 -.5.5v9a.5.5 0 0 0 .5.5h9a.5.5 0 0 0 .5-.5v-9a.5.5 0 0 0 -.5-.5z" data-original="#000000"/><path class="" d="m22.5 1h-9a.5.5 0 0 0 -.5.5v9a.5.5 0 0 0 .5.5h9a.5.5 0 0 0 .5-.5v-9a.5.5 0 0 0 -.5-.5z" data-original="#000000"/><path class="" d="m22.5 17.5h-4v-4a.5.5 0 0 0 -1 0v4h-4a.5.5 0 0 0 0 1h4v4a.5.5 0 0 0 1 0v-4h4a.5.5 0 0 0 0-1z" data-original="#000000"/></g></svg>
