<?xml version="1.0" encoding="UTF-8"?>
<svg fill="#273a3f" class="" width="512" height="512" enable-background="new 0 0 512 512" version="1.1" viewBox="0 0 469.4 469.4" xml:space="preserve" xmlns="http://www.w3.org/2000/svg">

	<path class="" d="m310.4 235.08 149.48-149.56c12.545-12.546 12.545-32.972 0-45.671l-30.447-30.447c-12.547-12.546-32.971-12.546-45.67 0l-149.48 149.56-148.64-148.64c-12.546-12.546-32.972-12.546-45.67 0l-30.448 30.447c-12.546 12.546-12.546 32.972 0 45.671l148.64 148.64-148.49 148.41c-12.546 12.546-12.546 32.971 0 45.67l30.447 30.447c12.546 12.546 32.972 12.546 45.67 0l148.49-148.41 148.79 148.79c12.547 12.546 32.973 12.546 45.67 0l30.447-30.447c12.547-12.546 12.547-32.972 0-45.671l-148.79-148.79z" data-original="#000000"/>
</svg>
