<?xml version="1.0" encoding="UTF-8"?>
<svg class="" width="512" height="512" enable-background="new 0 0 512 512" version="1.1" viewBox="0 0 64 64" xml:space="preserve" xmlns="http://www.w3.org/2000/svg"><path class="" d="m56.2 20.5-21-17.3c-1.9-1.6-4.6-1.6-6.5 0l-21 17.3c-1.2 1-1.9 2.4-1.9 4v32.5c0 2.8 2.3 5.1 5.1 5.1h42c2.8 0 5.1-2.3 5.1-5.1v-32.6c.1-1.5-.6-3-1.8-3.9zm-7.1 31.7c0 1.2-1 2.2-2.2 2.2h-29.8c-1.2 0-2.2-1-2.2-2.2v-2c0-1.2 1-2.2 2.2-2.2h29.8c1.2 0 2.2 1 2.2 2.2z" fill="#273a3f" data-original="#2c384c"/></svg>
