<?xml version="1.0" encoding="UTF-8"?>
<svg width="3870" height="592.48" fill="#273a3f" version="1.0" viewBox="0 0 2902.5 444.36" xmlns="http://www.w3.org/2000/svg">
<metadata>Created by potrace 1.12, written by Peter Selinger 2001-2015</metadata>
<g transform="matrix(.1 0 0 -.1 305.22 497.79)">
<path d="m2455 4974c-396-41-771-174-1065-378l-45-31 2206-10-88-72c-48-39-104-87-122-107l-35-36h888l-35 36c-18 20-74 68-122 107l-88 72 2206 10-45 31c-198 137-466 256-715 318-194 48-305 61-535 61-240 0-343-13-565-70-162-42-233-68-407-152l-138-66-137 66c-221 106-375 155-618 198-116 20-436 34-540 23z"/>
<path d="m991 4243c-50-53-91-100-91-105 0-4 497-8 1105-8h1105l-71-102-70-103 780-3 781-2 24-38c25-40 86-158 86-167 0-3-400-5-890-5s-890 3-890 7c0 3 23 48 50 100 27 51 50 96 50 98 0 3-498 5-1108 5h-1107l-58-102-57-103 1110-3c611-1 1110-3 1110-5 0-1-15-38-34-82-18-44-36-90-40-102l-7-23h1962l-7 23c-4 12-22 58-40 102-19 44-34 81-34 82 0 2 499 4 1110 5l1110 3-57 103-58 102h-2221l-72 105-71 105h1104c608 0 1105 4 1105 8 0 5-41 52-91 105l-91 97h-2220l82-87c45-49 86-96 91-105 9-17-23-18-621-18s-630 1-621 18c5 9 46 56 91 105l82 87h-2220z"/>
<path d="m541 3481c-9-16-61-185-61-197 0-2 500-3 1111-2l1111 3 29 100c16 55 29 103 29 108 0 4-497 7-1105 7-1069 0-1105-1-1114-19z"/>
<path d="m4740 3493c0-5 13-53 29-108l29-100 1111-3 1111-2-6 27c-4 16-18 64-33 108l-26 80-1107 3c-610 1-1108-1-1108-5z"/>
<path d="m2692 3238c-6-24-13-63-17-88-3-25-9-53-11-62-5-17-67-18-1114-18h-1108l-5-32c-4-18-9-66-13-105l-7-73h2223v-210h-2223l7-72c4-40 9-88 13-105l5-33h2218l4-22c11-51 36-185 36-191 0-4-499-7-1110-7-883 0-1109-3-1106-12 3-7 17-55 32-105l27-93h1109c609 0 1108 4 1108 8 0 5-11 46-25 92s-25 89-25 97c0 11 184 13 1040 13s1040-2 1040-13c0-8-11-51-25-97s-25-87-25-92c0-4 499-8 1108-8h1109l27 93c15 50 29 98 32 105 3 9-223 12-1106 12-611 0-1110 3-1110 7 0 6 25 140 36 191l4 22h2218l5 33c4 17 9 65 13 105l7 72h-2223v210h2223l-7 73c-4 39-9 87-13 105l-5 32h-1108c-1047 0-1109 1-1114 18-2 9-8 37-11 62-4 25-11 64-17 88l-10 42h-2096zm2152-215c3-27 8-74 12-105l6-58h-2224l6 58c4 31 9 78 12 105l6 47h2176zm12-430c-4-32-9-79-12-105l-6-48h-2176l-6 48c-3 26-8 73-12 105l-6 57h2224z"/>
<path d="m2776 1988c4-13 22-59 40-103 19-44 34-81 34-82 0-2-499-4-1110-5l-1110-3 57-102 58-103h1107c610 0 1108 2 1108 5 0 2-22 47-50 98-27 52-50 97-50 100 0 4 400 7 890 7s890-3 890-7c0-3-22-48-50-100-27-51-50-96-50-98 0-3 498-5 1108-5h1107l58 103 57 102-1110 3c-611 1-1110 3-1110 5 0 1 15 38 34 82 18 44 36 90 40 103l7 22h-1962z"/>
<path d="m2976 1578c4-7 36-55 71-105l63-93h-1105c-608 0-1105-4-1105-8 0-5 41-52 91-105l91-97h2220l-82 88c-45 48-86 95-91 105-9 16 23 17 621 17s630-1 621-17c-5-10-46-57-91-106l-82-87h2220l91 97c50 53 91 100 91 105 0 4-497 8-1105 8h-1105l63 93c35 50 67 98 71 105 6 9-152 12-774 12s-780-3-774-12z"/>
<path d="m3341 1134c18-20 74-68 122-107l88-72-2206-10 45-31c256-178 584-305 925-361 154-25 496-25 650 0 241 40 420 96 638 200l147 70 148-70c217-104 396-160 637-200 154-25 496-25 650 0 341 56 669 183 925 361l45 31-2206 10 88 72c48 39 104 87 122 107l35 36h-888z"/>
</g>
<g stroke-width=".75" aria-label="RADIO">
<path d="m1034.5 368.08v-288.8h205.6q59.2 0.4 93.2 16.4 34.4 15.6 34.4 63.6 0 28.4-17.6 46t-44.8 22.4v3.6q21.2 0.8 36.8 9.6t19.2 30.8l15.6 96.4h-121.6l-10-64.4q0-0.4 0-0.8-4.4-26-13.2-32.4-8.4-6.8-39.2-6.8l-36.8-0.4v104.8h-121.6zm121.6-230.4v69.6h46.4q19.6 0.4 32.8-6.8 13.2-7.6 13.2-28 0-19.2-12.8-26.8t-35.2-7.6l-44.4-0.4z"/>
<path d="m1388.5 368.08 147.2-288.8h151.6l147.2 288.8h-134l-21.2-48h-149.2l-22.4 48h-119.2zm170.8-111.2h91.6l-44.8-100.8-46.8 100.8z"/>
<path d="m1864.5 368.08v-288.8h154.8q64 0.4 107.2 9.2t72.8 38.8q15.6 16 25.2 41.6 10 25.2 10 57.6 0 31.6-10.4 60-10 28.4-28.8 43.6-0.8 0.8-1.6 1.6-0.8 0.4-2 1.2-24.4 18.8-55.6 27.2-31.2 8-96 8h-175.6zm121.6-223.2v157.6h33.6q41.6 0.4 64.8-18.8 23.6-19.2 23.6-59.6t-23.6-59.6q-23.2-19.2-64.8-19.2l-33.6-0.4z"/>
<path d="m2286.9 368.08v-288.8h121.6v288.8h-121.6z"/>
<path d="m2847.3 223.68q0 33.6-10 59.6-9.6 25.6-27.6 42.8-23.2 22.4-61.6 36-38 13.6-94 13.6-106 0-149.6-43.2-43.6-43.6-43.6-108.4 0-42 15.2-72 15.6-30.4 40.4-48 20.8-14.8 51.2-23.2 30.8-8.8 86.4-8.8 106 0 149.6 43.6 43.6 43.6 43.6 108.4zm-124 0q0-44-19.6-64.8-19.6-21.2-49.6-21.2t-49.6 21.2q-19.6 20.8-19.6 65.2t19.6 65.6q19.6 20.8 49.6 20.8t49.6-20.8q19.6-21.2 19.6-65.6z"/>
</g>
<g stroke-width=".75" aria-label="F">
<path d="m67.944 365.19v-288.8h265.6v60.8h-144v60h136.8v60.8h-136.8v107.2h-121.6z"/>
</g>
</svg>
