<?xml version="1.0" encoding="UTF-8"?>
<svg class="hovered-paths" width="512" height="512" enable-background="new 0 0 512 512" version="1.1" viewBox="0 0 32 32" xml:space="preserve" xmlns="http://www.w3.org/2000/svg"><g data-name="Layer 33" xmlns="http://www.w3.org/2000/svg"><path fill="#273a3f" class="hovered-path" d="m14 5v22a3 3 0 0 1-3 3h-3a3 3 0 0 1-3-3v-22a3 3 0 0 1 3-3h3a3 3 0 0 1 3 3zm10-3h-3a3 3 0 0 0-3 3v22a3 3 0 0 0 3 3h3a3 3 0 0 0 3-3v-22a3 3 0 0 0-3-3z" data-original="#000000"/></g></svg>
