<?xml version="1.0" encoding="UTF-8"?>
<svg class="" enable-background="new 0 0 512 512" version="1.1" viewBox="0 0 512 512" xml:space="preserve" xmlns="http://www.w3.org/2000/svg">
<g xmlns="http://www.w3.org/2000/svg">

		<path class="" fill="#273a3f" d="m463.7 162.66-21.211-148.49c-1.744-12.174-16.707-17.233-25.459-8.481l-30.894 30.894c-39.727-23.965-84.829-36.577-131.21-36.577-139.47 0-251.44 109.16-254.93 248.51-0.19 7.617 5.347 14.15 12.876 15.234l59.941 8.569c8.936 1.304 17.249-5.712 17.125-15.058-1.243-91.97 73.039-167.26 164.98-167.26 22.265 0 44.267 4.526 64.6 13.183l-29.78 29.78c-8.697 8.697-3.761 23.706 8.481 25.459l148.49 21.211c9.784 1.475 18.381-7.034 16.978-16.978z" data-original="#273a3f"/>

</g>
<g xmlns="http://www.w3.org/2000/svg">

		<path class="" fill="#273a3f" d="m499.12 249.41-59.897-8.555c-7.738-0.98-17.124 5.651-17.124 16.143 0 90.981-74.019 165-165 165-22.148 0-44.048-4.482-64.306-13.052l28.828-28.828c8.697-8.697 3.761-23.706-8.481-25.459l-148.49-21.226c-9.753-1.393-18.39 6.971-16.978 16.978l21.21 148.49c1.746 12.187 16.696 17.212 25.459 8.481l31.641-31.626c39.536 23.745 84.609 36.24 131.12 36.24 138.79 0 250.75-108.62 254.9-247.28 0.22-7.632-5.317-14.224-12.876-15.308z" data-original="#273a3f"/>

</g>















</svg>
