<?xml version="1.0" encoding="UTF-8"?>
<svg class="" fill="#273a3f" enable-background="new 0 0 512 512" version="1.1" viewBox="0 0 512 512" xml:space="preserve" xmlns="http://www.w3.org/2000/svg"><g><path class="" d="m317 90c-8.024 0-26.55 31.644-29.42 90h58.839c-2.869-58.356-21.395-90-29.419-90z" data-original="#000000"/><path class="" d="m213.52 180h44.061c1.364-29.685 6.656-58.336 15.941-80.292-31.798 14.579-54.813 44.5-60.002 80.292z" data-original="#000000"/><path class="" d="m317 300c8.024 0 26.55-31.644 29.42-90h-58.84c2.87 58.356 21.396 90 29.42 90z" data-original="#000000"/><path class="" d="m360.48 99.708c9.285 21.956 14.577 50.607 15.941 80.292h44.061c-5.189-35.792-28.204-65.713-60.002-80.292z" data-original="#000000"/><path class="" d="m317 0c-107.52 0-195 87.48-195 195s87.48 195 195 195 195-87.48 195-195-87.48-195-195-195zm0 330c-74.443 0-135-60.557-135-135s60.557-135 135-135 135 60.557 135 135-60.557 135-135 135z" data-original="#000000"/><path class="" d="m213.52 210c5.189 35.792 28.204 65.713 60.002 80.292-9.285-21.956-14.577-50.607-15.941-80.292z" data-original="#000000"/><path class="" d="m360.48 290.29c31.798-14.579 54.813-44.5 60.002-80.292h-44.061c-1.364 29.685-6.656 58.336-15.941 80.292z" data-original="#000000"/><path class="" d="m13.151 498.86c17.538 17.509 46.113 17.534 63.633-0.015l116.26-116.26c-25.237-16.734-46.899-38.395-63.633-63.633l-116.26 116.26c-17.535 17.535-17.535 46.07 0 63.648z" data-original="#000000"/></g></svg>
