<?xml version="1.0" encoding="UTF-8"?>
<svg class="" fill="#273a3f" enable-background="new 0 0 512 512" version="1.1" viewBox="0 0 512 512" xml:space="preserve" xmlns="http://www.w3.org/2000/svg"><g><path class="" d="m0 241h106.39c0.985-37.555 5.577-72.935 13.235-105h-88.498c-16.938 31.615-28.909 67.24-31.123 105z" data-original="#000000"/><path class="" d="m106.39 271h-106.39c2.214 37.76 14.185 73.385 31.123 105h88.499c-7.658-32.065-12.251-67.445-13.236-105z" data-original="#000000"/><path class="" d="m241 241v-105h-90.361c-8.21 31.776-13.182 67.478-14.269 105z" data-original="#000000"/><path class="" d="m241 106v-106c-32.847 9.174-61.943 51.143-81.145 106z" data-original="#000000"/><path class="" d="m241 512v-106h-81.145c19.202 54.857 48.298 96.826 81.145 106z" data-original="#000000"/><path class="" d="m271 0v106h81.145c-19.202-54.857-48.298-96.826-81.145-106z" data-original="#000000"/><path class="" d="m375.63 241c-1.088-37.522-6.059-73.224-14.269-105h-90.361v105z" data-original="#000000"/><path class="" d="m241 271h-104.63c1.088 37.524 6.059 73.224 14.269 105h90.361z" data-original="#000000"/><path class="" d="m384.01 106h77.75c-31.049-42.473-74.76-78.355-125.68-95.257 19.571 23.104 35.94 57.847 47.934 95.257z" data-original="#000000"/><path class="" d="m127.99 406h-77.75c31.049 42.473 74.76 78.355 125.68 95.257-19.571-23.104-35.94-57.847-47.934-95.257z" data-original="#000000"/><path class="" d="m127.99 106c11.993-37.41 28.363-72.153 47.933-95.257-50.923 16.902-94.634 52.784-125.68 95.257z" data-original="#000000"/><path class="" d="m384.01 406c-11.993 37.41-28.363 72.153-47.933 95.257 50.923-16.902 94.634-52.784 125.68-95.257z" data-original="#000000"/><path class="" d="m271 271v105h90.361c8.21-31.776 13.182-67.476 14.269-105z" data-original="#000000"/><path class="" d="m392.38 136c7.657 32.065 12.25 67.445 13.235 105h106.39c-2.214-37.76-14.185-73.385-31.123-105z" data-original="#000000"/><path class="" d="m271 406v106c32.847-9.174 61.943-51.143 81.145-106z" data-original="#000000"/><path class="" d="m512 271h-106.39c-0.985 37.555-5.577 72.935-13.235 105h88.499c16.937-31.615 28.908-67.24 31.122-105z" data-original="#000000"/></g></svg>
