<?xml version="1.0" encoding="UTF-8"?>
<svg fill="#273a3f" class="" width="512" height="512" enable-background="new 0 0 512 512" version="1.1" viewBox="0 0 343.09 343.09" xml:space="preserve" xmlns="http://www.w3.org/2000/svg">

	
		<g>
			<path class="" d="m276.03 99.628-99.265-97.176c-2.397-2.885-6.679-3.281-9.564-0.885-0.321 0.267-0.618 0.563-0.885 0.885l-99.265 97.176c-3.174 2.942-3.362 7.901-0.42 11.075 1.459 1.574 3.499 2.481 5.645 2.509h47.02v125.91c0.892 5.262 5.148 9.305 10.449 9.927h83.592c4.18 0 5.224-5.224 5.224-9.927v-125.91h52.245c4.328-0.057 7.79-3.611 7.733-7.939-0.028-2.146-0.935-4.186-2.509-5.645z" data-original="#000000"/>
			<path class="" d="m213.34 264.72h-83.592c-4.328 0-7.837 3.509-7.837 7.837s3.509 7.837 7.837 7.837h83.592c4.328 0 7.837-3.509 7.837-7.837s-3.508-7.837-7.837-7.837z" data-original="#000000"/>
			<path class="" d="m213.34 296.07h-83.592c-4.328 0-7.837 3.509-7.837 7.837s3.509 7.837 7.837 7.837h83.592c4.328 0 7.837-3.509 7.837-7.837s-3.508-7.837-7.837-7.837z" data-original="#000000"/>
			<path class="" d="m213.34 327.42h-83.592c-4.328 0-7.837 3.509-7.837 7.837s3.509 7.837 7.837 7.837h83.592c4.328 0 7.837-3.509 7.837-7.837s-3.508-7.837-7.837-7.837z" data-original="#000000"/>
		</g>
	
















</svg>
