<?xml version="1.0" encoding="UTF-8"?>
<svg fill="#273a3f" class="" enable-background="new 0 0 512 512" version="1.1" viewBox="0 0 512 512" xml:space="preserve" xmlns="http://www.w3.org/2000/svg"><g><path class="" d="m357.93 366.94c-5.834 0-11.682-2.114-16.3-6.391-9.726-9.005-10.31-24.19-1.304-33.916 17.843-19.269 27.67-44.354 27.67-70.633s-9.827-51.364-27.67-70.634c-9.006-9.726-8.422-24.911 1.304-33.916 9.726-9.007 24.91-8.421 33.916 1.303 26.084 28.17 40.45 64.838 40.45 103.25s-14.366 75.077-40.45 103.25c-4.73 5.107-11.164 7.693-17.616 7.693z" data-original="#000000"/><path class="" d="m422.19 438.59c-6.154 0-12.306-2.352-16.994-7.053-9.36-9.385-9.339-24.581 0.046-33.94 37.891-37.788 58.758-88.075 58.758-141.6s-20.867-103.81-58.758-141.6c-9.385-9.359-9.406-24.556-0.046-33.94 9.359-9.387 24.555-9.406 33.941-0.047 46.987 46.859 72.863 109.22 72.863 175.58s-25.876 128.72-72.863 175.58c-4.684 4.671-10.816 7.006-16.947 7.006z" data-original="#000000"/><path class="" d="m99 160h-55c-24.301 0-44 19.699-44 44v104c0 24.301 19.699 44 44 44h55c2.761 0 5-2.239 5-5v-182c0-2.761-2.239-5-5-5z" data-original="#000000"/><path class="" d="m280 56h-24c-5.269 0-10.392 1.734-14.578 4.935l-103.46 79.116c-1.237 0.946-1.963 2.414-1.963 3.972v223.96c0 1.557 0.726 3.026 1.963 3.972l103.46 79.115c4.186 3.201 9.309 4.936 14.579 4.936h23.999c13.255 0 24-10.745 24-24v-352c0-13.255-10.745-24-24-24z" data-original="#000000"/></g></svg>
