<?xml version="1.0" standalone="no"?>
<!DOCTYPE svg PUBLIC "-//W3C//DTD SVG 20010904//EN"
 "http://www.w3.org/TR/2001/REC-SVG-20010904/DTD/svg10.dtd">
<svg version="1.0" xmlns="http://www.w3.org/2000/svg"
 width="260.000000pt" height="260.000000pt" viewBox="0 0 260.000000 260.000000"
 preserveAspectRatio="xMidYMid meet">
<metadata>
Created by potrace 1.14, written by Peter Selinger 2001-2017
</metadata>
<g transform="translate(0.000000,260.000000) scale(0.100000,-0.100000)"
fill="#000000" stroke="none">
<path d="M690 2151 c-47 -10 -110 -29 -140 -41 -62 -24 -184 -90 -178 -96 2
-2 192 -5 421 -6 229 -2 417 -5 417 -7 0 -2 -19 -21 -42 -42 l-43 -38 175 0
175 0 -42 38 c-24 21 -43 41 -43 43 0 3 127 5 283 6 599 2 564 1 542 18 -38
29 -180 93 -255 114 -105 30 -295 35 -405 11 -90 -21 -95 -22 -186 -63 l-66
-30 -54 25 c-182 83 -379 107 -559 68z"/>
<path d="M319 1922 c-64 -3 -68 -4 -98 -42 l-32 -40 431 0 431 0 -26 -37 -25
-38 297 -5 c164 -3 300 -4 302 -3 2 2 -8 21 -23 43 l-26 40 429 2 430 3 -34
38 -34 38 -398 0 c-219 0 -413 0 -432 0 l-33 -1 33 -37 33 -38 -229 -3 c-126
-1 -236 0 -243 3 -9 3 -5 14 17 37 17 18 29 34 27 36 -5 4 -710 8 -797 4z"/>
<path d="M110 1725 c-12 -20 -20 -39 -17 -42 4 -3 197 -6 431 -6 l425 -1 -15
-34 c-8 -19 -14 -37 -14 -41 0 -4 171 -7 380 -7 209 0 380 3 380 7 0 4 -6 22
-14 41 l-15 34 425 1 c234 0 428 3 431 6 3 4 -3 21 -14 39 l-19 33 -432 3
c-238 1 -432 -1 -432 -5 1 -5 7 -19 15 -33 8 -14 14 -29 15 -35 0 -10 -666
-13 -676 -2 -3 3 2 19 10 36 9 16 13 32 8 34 -4 3 -197 6 -428 6 l-422 2 -22
-36z"/>
<path d="M77 1592 c-19 -2 -31 -11 -38 -28 -21 -57 -46 -54 423 -52 l432 3 8
34 c5 18 6 36 3 39 -6 6 -777 10 -828 4z"/>
<path d="M1706 1592 c-14 -3 -16 -10 -10 -35 3 -18 8 -35 11 -39 2 -5 198 -8
435 -8 l430 0 -6 28 c-4 15 -7 33 -8 40 -1 6 -15 12 -32 13 -120 3 -806 3
-820 1z"/>
<path d="M886 1494 c-3 -9 -6 -27 -6 -40 l0 -24 -435 0 c-341 0 -435 -3 -436
-12 0 -7 -3 -25 -5 -39 -3 -19 0 -28 13 -31 10 -2 206 -4 436 -3 l418 0 -3
-40 -3 -40 -430 0 -430 0 1 -25 c4 -66 -41 -60 438 -60 l433 0 6 -37 c4 -20 5
-39 2 -41 -2 -2 -193 -5 -424 -6 -231 0 -423 -4 -426 -8 -4 -4 -2 -22 4 -40
l11 -33 427 0 428 1 -3 39 -3 40 388 -1 c213 -1 396 -2 405 -3 14 -1 15 -5 6
-32 -6 -16 -7 -33 -3 -37 4 -4 198 -7 431 -7 l424 0 11 33 c6 18 8 36 4 40 -3
4 -195 7 -426 8 -231 1 -422 3 -424 6 -2 2 -2 21 2 41 l6 37 433 0 c340 0 434
3 435 13 1 6 3 26 5 42 l3 30 -434 -1 -434 0 1 33 c1 18 -2 36 -6 41 -4 4
-197 7 -429 7 l-422 0 -1 38 c-1 30 3 38 20 42 12 3 203 4 426 2 l405 -2 3
-40 3 -40 434 0 435 0 -4 25 c-2 14 -5 33 -5 42 -1 16 -24 18 -323 18 -550 -1
-538 -1 -542 13 -3 6 -7 24 -10 40 l-6 27 -409 0 c-364 0 -410 -2 -415 -16z
m822 -233 c21 -1 23 -5 20 -38 l-3 -38 -425 0 -425 0 -3 34 c-2 19 1 37 6 40
8 5 728 6 830 2z"/>
<path d="M924 1009 c-2 -4 3 -23 11 -42 l14 -35 -426 -1 c-235 -1 -429 -3
-431 -6 -2 -2 4 -19 15 -37 l19 -33 432 -3 c238 -1 432 1 432 4 0 3 -8 19 -17
35 -9 15 -15 31 -12 33 5 5 250 8 552 7 l139 -1 -21 -34 c-12 -18 -21 -36 -21
-40 0 -3 194 -5 432 -4 l432 3 19 33 c11 18 18 35 15 37 -2 2 -194 5 -427 6
l-423 1 6 26 c4 15 8 34 9 42 2 13 -48 15 -371 15 -206 0 -376 -3 -378 -6z"/>
<path d="M1006 838 c4 -7 16 -25 26 -40 l19 -28 -430 -2 -431 -3 33 -39 34
-38 399 0 c219 0 414 1 433 1 l33 1 -33 38 -33 37 239 3 c131 1 240 0 243 -3
3 -3 -10 -21 -28 -40 l-34 -35 227 -1 c291 -1 590 -1 621 0 16 1 35 15 57 42
32 40 32 41 8 39 -13 -1 -208 -2 -432 -1 l-408 1 19 28 c10 15 22 33 26 40 6
9 -56 12 -294 12 -238 0 -300 -3 -294 -12z"/>
<path d="M1172 646 l47 -42 -421 -2 c-232 -1 -424 -4 -426 -6 -7 -7 131 -80
197 -103 101 -37 186 -52 301 -52 143 1 238 23 388 91 l44 19 51 -24 c135 -63
233 -85 375 -86 158 0 285 32 420 104 37 20 71 41 77 46 5 5 -68 9 -190 10
-532 2 -645 3 -645 6 0 3 19 22 43 44 l42 39 -175 -1 -175 -2 47 -41z"/>
</g>
</svg>
